<svg width="764" height="285" viewBox="0 0 764 285" fill="none" xmlns="http://www.w3.org/2000/svg">
<path fill-rule="evenodd" clip-rule="evenodd" d="M388.29 113.996L388.29 43.6315L317.919 114L300 96.1316L370.396 25.7377L300 25.7377L300 7.62939e-06L398 3.34568e-06L414 16L414 113.996H388.29Z" fill="#171717"/>
<path d="M464 0H439V69H464V0Z" fill="#171717"/>
<path d="M464 89H439V114H464V89Z" fill="#171717"/>
<path d="M25.84 241.376V285H0V171H97.432V193.192H25.84V219.336H94.848V241.376H25.84Z" fill="#171717"/>
<path fill-rule="evenodd" clip-rule="evenodd" d="M285.295 241.68V285H259.455V171H324.359C332.668 171 339.964 172.52 346.247 175.56C352.53 178.499 357.444 182.603 360.991 187.872C364.538 193.141 366.311 199.323 366.311 206.416C366.311 213.408 364.538 219.539 360.991 224.808C357.444 230.077 352.53 234.232 346.247 237.272C342.555 238.999 338.514 240.218 334.123 240.93L369.655 285H339.407L305.097 241.68H285.295ZM285.295 221.616H321.319C327.095 221.616 331.655 220.299 334.999 217.664C338.444 214.928 340.167 211.179 340.167 206.416C340.167 201.653 338.444 197.955 334.999 195.32C331.655 192.685 327.095 191.368 321.319 191.368H285.295V221.616Z" fill="#171717"/>
<path d="M388.667 171H414.355V249.767L477.587 171H505.099L465.71 219.192L506.771 285H477.283L449.269 239.307L411.923 285H388.667V171Z" fill="#171717"/>
<path d="M586.095 171H560.255V285H586.095V171Z" fill="#171717"/>
<path d="M603.307 193.8H648.755V285H674.443V193.8H719.74V171H603.307V193.8Z" fill="#171717"/>
<path fill-rule="evenodd" clip-rule="evenodd" d="M174.515 285C161.751 285 150.546 282.613 140.9 277.838C131.351 273.064 123.897 266.438 118.538 257.962C113.179 249.387 110.5 239.4 110.5 228C110.5 216.6 113.179 206.662 118.538 198.185C123.897 189.61 131.351 182.936 140.9 178.162C150.546 173.387 161.751 171 174.515 171C187.279 171 198.436 173.387 207.985 178.162C217.631 182.936 225.133 189.61 230.492 198.185C235.851 206.662 238.531 216.6 238.531 228C238.531 239.4 235.851 249.387 230.492 257.962C225.133 266.438 217.631 273.064 207.985 277.838C198.436 282.613 187.279 285 174.515 285ZM174.515 262.931C182.505 262.931 189.374 261.518 195.123 258.692C200.969 255.867 205.451 251.823 208.569 246.562C211.785 241.3 213.392 235.113 213.392 228C213.392 220.887 211.785 214.7 208.569 209.438C205.451 204.177 200.969 200.133 195.123 197.308C189.374 194.482 182.505 193.069 174.515 193.069C166.623 193.069 159.754 194.482 153.908 197.308C148.062 200.133 143.531 204.177 140.315 209.438C137.197 214.7 135.638 220.887 135.638 228C135.638 235.113 137.197 241.3 140.315 246.562C143.531 251.823 148.062 255.867 153.908 258.692C159.754 261.518 166.623 262.931 174.515 262.931Z" fill="#171717"/>
<path d="M738.5 171H763.5V240H738.5V171Z" fill="#171717"/>
<path d="M738.5 260H763.5V285H738.5V260Z" fill="#171717"/>
</svg>
