<svg width="1042" height="114" viewBox="0 0 1042 114" fill="none" xmlns="http://www.w3.org/2000/svg">
<path fill-rule="evenodd" clip-rule="evenodd" d="M88.2896 113.996L88.2896 43.6315L17.9192 114L4.96174e-06 96.1316L70.3959 25.7377L1.10614e-06 25.7377L0 7.62939e-06L98 3.34568e-06L114 16L114 113.996H88.2896Z" fill="#171717"/>
<path d="M164 0H139V69H164V0Z" fill="#171717"/>
<path d="M164 89H139V114H164V89Z" fill="#171717"/>
<path d="M303.84 70.376V114H278V0H375.432V22.192H303.84V48.336H372.848V70.376H303.84Z" fill="#171717"/>
<path fill-rule="evenodd" clip-rule="evenodd" d="M563.295 70.68V114H537.455V0H602.359C610.668 0 617.964 1.52 624.247 4.56C630.53 7.49867 635.444 11.6027 638.991 16.872C642.538 22.1413 644.311 28.3227 644.311 35.416C644.311 42.408 642.538 48.5387 638.991 53.808C635.444 59.0773 630.53 63.232 624.247 66.272C620.555 67.9987 616.514 69.2181 612.123 69.9302L647.655 114H617.407L583.097 70.68H563.295ZM563.295 50.616H599.319C605.095 50.616 609.655 49.2987 612.999 46.664C616.444 43.928 618.167 40.1787 618.167 35.416C618.167 30.6533 616.444 26.9547 612.999 24.32C609.655 21.6853 605.095 20.368 599.319 20.368H563.295V50.616Z" fill="#171717"/>
<path d="M666.667 0H692.355V78.7675L755.587 0H783.099L743.71 48.192L784.771 114H755.283L727.269 68.3069L689.923 114H666.667V0Z" fill="#171717"/>
<path d="M864.095 0H838.255V114H864.095V0Z" fill="#171717"/>
<path d="M881.307 22.8H926.755V114H952.443V22.8H997.74V0H881.307V22.8Z" fill="#171717"/>
<path fill-rule="evenodd" clip-rule="evenodd" d="M452.515 114C439.751 114 428.546 111.613 418.9 106.838C409.351 102.064 401.897 95.4385 396.538 86.9615C391.179 78.3872 388.5 68.4 388.5 57C388.5 45.6 391.179 35.6615 396.538 27.1846C401.897 18.6103 409.351 11.9359 418.9 7.16154C428.546 2.38718 439.751 0 452.515 0C465.279 0 476.436 2.38718 485.985 7.16154C495.631 11.9359 503.133 18.6103 508.492 27.1846C513.851 35.6615 516.531 45.6 516.531 57C516.531 68.4 513.851 78.3872 508.492 86.9615C503.133 95.4385 495.631 102.064 485.985 106.838C476.436 111.613 465.279 114 452.515 114ZM452.515 91.9308C460.505 91.9308 467.374 90.518 473.123 87.6923C478.969 84.8667 483.451 80.8231 486.569 75.5615C489.785 70.3 491.392 64.1128 491.392 57C491.392 49.8872 489.785 43.7 486.569 38.4385C483.451 33.1769 478.969 29.1333 473.123 26.3077C467.374 23.4821 460.505 22.0692 452.515 22.0692C444.623 22.0692 437.754 23.4821 431.908 26.3077C426.062 29.1333 421.531 33.1769 418.315 38.4385C415.197 43.7 413.638 49.8872 413.638 57C413.638 64.1128 415.197 70.3 418.315 75.5615C421.531 80.8231 426.062 84.8667 431.908 87.6923C437.754 90.518 444.623 91.9308 452.515 91.9308Z" fill="#171717"/>
<path d="M1016.5 0H1041.5V69H1016.5V0Z" fill="#171717"/>
<path d="M1016.5 89H1041.5V114H1016.5V89Z" fill="#171717"/>
</svg>
