<svg width="396" height="43" viewBox="0 0 396 43" fill="none" xmlns="http://www.w3.org/2000/svg">
<path fill-rule="evenodd" clip-rule="evenodd" d="M33.5696 42.9986L33.5696 16.4575L6.81324 43L1.88656e-06 36.2602L26.766 9.70808L4.20577e-07 9.70809L0 2.87775e-06L37.2616 1.26197e-06L43.3452 6.03509L43.3452 42.9986H33.5696Z" fill="white"/>
<path d="M62.3562 0H52.8507V26.0263H62.3562V0Z" fill="white"/>
<path d="M62.3562 33.5702H52.8507V43H62.3562V33.5702Z" fill="white"/>
<path d="M115.526 26.5453V43H105.701V0H142.747V8.37067H115.526V18.232H141.765V26.5453H115.526Z" fill="white"/>
<path fill-rule="evenodd" clip-rule="evenodd" d="M214.177 26.66V43H204.352V0H229.029C232.189 0 234.963 0.573334 237.352 1.72C239.741 2.82845 241.609 4.37644 242.958 6.364C244.306 8.35156 244.98 10.6831 244.98 13.3587C244.98 15.996 244.306 18.3084 242.958 20.296C241.609 22.2836 239.741 23.8507 237.352 24.9973C235.948 25.6486 234.412 26.1086 232.742 26.3772L246.252 43H234.751L221.705 26.66H214.177ZM214.177 19.092H227.874C230.07 19.092 231.804 18.5951 233.075 17.6013C234.385 16.5693 235.04 15.1551 235.04 13.3587C235.04 11.5622 234.385 10.1671 233.075 9.17333C231.804 8.17956 230.07 7.68267 227.874 7.68267H214.177V19.092Z" fill="white"/>
<path d="M253.481 0H263.248V29.7105L287.29 0H297.751L282.774 18.1777L298.386 43H287.174L276.523 25.7649L262.323 43H253.481V0Z" fill="white"/>
<path d="M328.547 0H318.722V43H328.547V0Z" fill="white"/>
<path d="M335.091 8.6H352.372V43H362.139V8.6H379.361V0H335.091V8.6Z" fill="white"/>
<path fill-rule="evenodd" clip-rule="evenodd" d="M172.056 43C167.203 43 162.942 42.0996 159.275 40.2987C155.644 38.4979 152.81 35.9987 150.772 32.8013C148.735 29.5671 147.716 25.8 147.716 21.5C147.716 17.2 148.735 13.4513 150.772 10.2538C152.81 7.01966 155.644 4.50214 159.275 2.70128C162.942 0.900428 167.203 0 172.056 0C176.909 0 181.151 0.900428 184.782 2.70128C188.449 4.50214 191.302 7.01966 193.339 10.2538C195.377 13.4513 196.396 17.2 196.396 21.5C196.396 25.8 195.377 29.5671 193.339 32.8013C191.302 35.9987 188.449 38.4979 184.782 40.2987C181.151 42.0996 176.909 43 172.056 43ZM172.056 34.6756C175.094 34.6756 177.705 34.1427 179.891 33.0769C182.114 32.0111 183.818 30.4859 185.004 28.5013C186.226 26.5167 186.838 24.1829 186.838 21.5C186.838 18.8171 186.226 16.4833 185.004 14.4987C183.818 12.5141 182.114 10.9889 179.891 9.92308C177.705 8.85726 175.094 8.32436 172.056 8.32436C169.055 8.32436 166.443 8.85726 164.22 9.92308C161.997 10.9889 160.275 12.5141 159.052 14.4987C157.867 16.4833 157.274 18.8171 157.274 21.5C157.274 24.1829 157.867 26.5167 159.052 28.5013C160.275 30.4859 161.997 32.0111 164.22 33.0769C166.443 34.1427 169.055 34.6756 172.056 34.6756Z" fill="white"/>
<path d="M386.494 0H396V26.0263H386.494V0Z" fill="white"/>
<path d="M386.494 33.5702H396V43H386.494V33.5702Z" fill="white"/>
</svg>
