<svg width="540" height="180" viewBox="0 0 540 180" fill="none" xmlns="http://www.w3.org/2000/svg">
<rect width="540" height="180" fill="white"/>
<path fill-rule="evenodd" clip-rule="evenodd" d="M106.085 111.599L106.085 84.9339L79.4125 111.6L72.6206 104.829L99.3027 78.1531L72.6206 78.1531L72.6206 68.3999L109.765 68.3999L115.83 74.4631L115.83 111.599H106.085Z" fill="#171717"/>
<path d="M134.781 68.3999H125.306V94.5473H134.781V68.3999Z" fill="#171717"/>
<path d="M134.781 102.126H125.306V111.6H134.781V102.126Z" fill="#171717"/>
<path d="M187.785 95.0687V111.6H177.991V68.3999H214.92V76.8095H187.785V86.7167H213.941V95.0687H187.785Z" fill="#171717"/>
<path fill-rule="evenodd" clip-rule="evenodd" d="M286.126 95.1839V111.6H276.332V68.3999H300.932C304.082 68.3999 306.847 68.9759 309.228 70.1279C311.61 71.2415 313.472 72.7967 314.817 74.7935C316.161 76.7903 316.833 79.1327 316.833 81.8207C316.833 84.4703 316.161 86.7935 314.817 88.7903C313.472 90.7871 311.61 92.3615 309.228 93.5135C307.829 94.1678 306.297 94.6299 304.633 94.8998L318.101 111.6H306.636L293.631 95.1839H286.126ZM286.126 87.5807H299.78C301.969 87.5807 303.698 87.0815 304.965 86.0831C306.271 85.0463 306.924 83.6255 306.924 81.8207C306.924 80.0159 306.271 78.6143 304.965 77.6159C303.698 76.6175 301.969 76.1183 299.78 76.1183H286.126V87.5807Z" fill="#171717"/>
<path d="M325.307 68.3999H335.043V98.2486L359.01 68.3999H369.438L354.508 86.6621L370.072 111.6H358.895L348.277 94.2846L334.121 111.6H325.307V68.3999Z" fill="#171717"/>
<path d="M400.138 68.3999H390.343V111.6H400.138V68.3999Z" fill="#171717"/>
<path d="M406.662 77.0399H423.888V111.6H433.624V77.0399H450.793V68.3999H406.662V77.0399Z" fill="#171717"/>
<path fill-rule="evenodd" clip-rule="evenodd" d="M244.137 111.6C239.299 111.6 235.052 110.695 231.396 108.886C227.777 107.077 224.951 104.566 222.92 101.354C220.889 98.1045 219.873 94.3199 219.873 89.9999C219.873 85.6799 220.889 81.9137 222.92 78.7014C224.951 75.4522 227.777 72.923 231.396 71.1137C235.052 69.3045 239.299 68.3999 244.137 68.3999C248.975 68.3999 253.204 69.3045 256.823 71.1137C260.479 72.923 263.323 75.4522 265.354 78.7014C267.385 81.9137 268.401 85.6799 268.401 89.9999C268.401 94.3199 267.385 98.1045 265.354 101.354C263.323 104.566 260.479 107.077 256.823 108.886C253.204 110.695 248.975 111.6 244.137 111.6ZM244.137 103.237C247.165 103.237 249.769 102.701 251.948 101.631C254.164 100.56 255.863 99.0276 257.044 97.0337C258.263 95.0399 258.873 92.6953 258.873 89.9999C258.873 87.3045 258.263 84.9599 257.044 82.9661C255.863 80.9722 254.164 79.4399 251.948 78.3691C249.769 77.2984 247.165 76.763 244.137 76.763C241.146 76.763 238.542 77.2984 236.326 78.3691C234.11 79.4399 232.393 80.9722 231.174 82.9661C229.993 84.9599 229.402 87.3045 229.402 89.9999C229.402 92.6953 229.993 95.0399 231.174 97.0337C232.393 99.0276 234.11 100.56 236.326 101.631C238.542 102.701 241.146 103.237 244.137 103.237Z" fill="#171717"/>
<path d="M457.904 68.3999H467.379V94.5473H457.904V68.3999Z" fill="#171717"/>
<path d="M457.904 102.126H467.379V111.6H457.904V102.126Z" fill="#171717"/>
</svg>
